PathFileType	4	(X/Y/Z)	Patient4_TMGait_0pt5_01_right_35.trc.trc
DataRate	CameraRate	NumFrames	NumMarkers	Units	OrigDataRate	OrigDataStartFrame	OrigNumFrames
72.538860103627	72.538860103627	7	33	mm	72.538860103627	36	       141
Frame#	Time	L.ASIS			Sacral			L.Shoulder			Chest			R.Shoulder			Neck			R.ASIS			R.Thigh.Superior			R.Thigh.Lateral			R.Thigh.Inferior			R.Patella			L.Thigh.Superior			L.Thigh.Lateral			L.Thigh.Inferior			L.Patella			L.Shank.Superior			L.Shank.Lateral			L.Shank.Inferior			R.Shank.Superior			R.Shank.Lateral			R.Shank.Inferior			R.Heel			R.Midfoot.Superior			R.Midfoot.Lateral			R.Toe			L.Heel			L.Midfoot.Lateral			L.Midfoot.Superior			L.Toe			L.Elbow			L.Wrist			R.Elbow			R.Wrist			
		X1	Y1	Z1	X2	Y2	Z2	X3	Y3	Z3	X4	Y4	Z4	X5	Y5	Z5	X6	Y6	Z6	X7	Y7	Z7	X8	Y8	Z8	X9	Y9	Z9	X10	Y10	Z10	X11	Y11	Z11	X12	Y12	Z12	X13	Y13	Z13	X14	Y14	Z14	X15	Y15	Z15	X16	Y16	Z16	X17	Y17	Z17	X18	Y18	Z18	X19	Y19	Z19	X20	Y20	Z20	X21	Y21	Z21	X22	Y22	Z22	X23	Y23	Z23	X24	Y24	Z24	X25	Y25	Z25	X26	Y26	Z26	X27	Y27	Z27	X28	Y28	Z28	X29	Y29	Z29	X30	Y30	Z30	X31	Y31	Z31	X32	Y32	Z32	X33	Y33	Z33	

36	46.412500000000	812.551569083675	956.355047288019	356.054608683907	592.413566675837	997.017760148665	502.895491412569	775.956626650113	1436.512085343903	348.789168868711	867.696303463535	1358.830053999640	513.402037398046	769.774094025025	1424.299381778441	684.755332236780	768.147252899720	1489.770059742165	503.138720475926	816.249554225922	936.753254500729	629.737785827663	880.657670091232	748.755508789062	597.462130870457	812.918392490004	632.649285479619	655.664512253687	897.660818781633	589.422475324632	576.879210949632	909.530612172522	499.192621623652	583.409301012497	849.025279872142	735.371352391753	381.192502243345	762.959588838575	622.905816443459	312.604047368111	843.448533240332	536.950441958940	374.840574388746	834.359932220645	451.342119689444	372.298728301932	767.461327513032	393.388994899041	365.349634171315	630.726324488493	345.184766494341	313.147322391697	617.766831646638	219.445712489773	373.184677448649	884.752813390942	408.074837476910	590.880032041652	818.113370591427	300.982231833796	652.197209624228	865.343757369730	208.297492260378	590.083860528374	736.720022135385	42.629794499869	558.743504734763	907.019494440719	97.731342091315	595.636568099834	819.447877046220	36.413186201243	634.440211767872	1027.173203524512	46.803583085841	624.787018694976	428.019825625616	141.616431637365	405.179360238378	492.583522085451	104.658371638441	326.702554908712	593.747858634906	123.555522749887	351.464031411887	683.474010836714	32.903992319425	325.801161136371	717.051877552406	1101.028109424415	202.184498046322	887.120702976455	900.965020242829	202.730533684210	733.470520369568	1072.888597829042	785.887582512236	883.274987545937	860.128786042828	782.115573505216	
37	46.426285714286	810.961566419089	957.277809341659	358.332551674695	591.882140227543	997.858355978750	507.281540240322	773.708427702096	1437.763471129021	352.213708692735	867.421427879941	1359.688973536758	515.534980411594	771.619898049633	1424.742228225120	688.203947818258	767.666793572789	1490.635060731455	506.766762369216	816.814980540355	937.657518613625	632.021294443745	878.941179588473	747.846309523225	601.059704292932	809.683371398569	632.781039206476	658.533417419508	893.986893895298	588.758638439417	579.686434182706	904.814210715708	498.593069057000	585.898029367794	853.604920928988	739.235064123178	383.946578768306	772.413580175681	624.188003569783	314.525581210879	856.283441084614	540.436947041710	376.134911331860	848.780567418436	453.473929659041	372.849375362707	780.038685479862	395.402005455201	366.317800361723	641.041697091233	352.077452339279	315.172604013429	624.619429913535	226.415223391353	374.629903606467	879.568271222031	407.683905025334	593.027818121326	812.327791139088	300.699572988304	653.788626339856	859.134127547918	208.073843335715	591.243044618921	729.932556462880	42.631190797303	558.990334124538	900.325154272625	97.810239266381	596.235370960957	812.644067207713	36.352839696791	634.727917579532	1020.385658845405	46.802407783764	625.054961064058	431.994071081005	156.928058589632	407.694525815466	494.253820455794	116.950359375224	328.549136924315	596.908471621628	130.208796373103	352.676315751357	681.094797451399	33.233090118047	325.900757114111	711.979296008762	1102.536861716476	206.325905719306	880.140187213821	900.754465454630	204.880712191632	740.056274161799	1073.437912570597	791.130248720968	894.097441094176	863.885689440308	786.501942956387	
38	46.440071428571	809.226869243939	958.096676398372	360.548558182309	591.175658382610	998.745139009682	511.526779254393	771.369062000494	1438.917287425055	355.385417627876	867.080203085830	1360.485710924640	517.393088330859	773.491493225914	1425.223314384160	691.373208492789	767.216982360993	1491.472130879507	510.060586764681	817.092925940856	938.564832433722	634.255603006359	876.881958127421	746.979805630156	604.775782257017	805.985044350335	632.903941458873	661.428536162151	889.952769146779	588.099407850425	582.628093795320	899.674047229520	498.038599165883	588.521549724635	857.839344801616	743.379681769036	386.586260858615	781.388644829516	626.039172456639	316.212920755485	868.484562654223	544.607835608983	377.132738550312	862.764445338885	456.450820067205	373.227111725165	792.604416008217	398.035048610508	367.109900321168	651.706904721417	358.840019369751	317.090690057535	632.475245993495	233.255750829242	376.082885906849	874.046775284537	407.347639583748	595.249080184040	806.209708539317	300.430983146534	655.374670351424	852.754154163195	207.900234644945	592.458011584355	723.083543048153	42.650838947524	559.223815783526	893.613486001099	97.863657621855	596.854289467958	805.777981052555	36.287381425931	634.998786259347	1013.545077372266	46.736517983200	625.309364355200	437.651410859117	170.792689614854	410.398605245582	497.788538895978	128.454500832549	330.522221789357	601.635383174251	136.868553075580	353.971720654187	681.014024293366	34.102478121281	325.896727994106	706.403462258796	1103.984716932495	210.343828441331	872.494258298485	900.423248285143	206.840711302341	746.849648641396	1074.113714808839	796.194818759258	904.719164710186	867.547560953141	790.778158131215	
39	46.453857142857	807.380677613140	958.858405595309	362.718997478264	590.331698906703	999.670323772187	515.606208667043	768.973892432197	1439.984192869768	358.309926301867	866.664821561104	1361.238977423577	519.010731847559	775.322474678596	1425.763013457970	694.259495858409	766.789747182163	1492.292361109683	513.024142614351	817.117971563074	939.464028658613	636.446101868606	874.569873303827	746.205098879392	608.462215957336	801.966498685387	633.036579625258	664.257563555929	885.666779323110	587.466380039175	585.585824193792	894.225023452265	497.535811846641	591.163015976711	861.619896065485	747.751380239867	389.063959326467	789.650848609736	628.443338276956	317.668277759773	879.795389122566	549.391769325574	377.815297575689	876.036885000788	460.224412631793	373.391908075119	804.927795037972	401.232368265324	367.687685055403	662.521983530003	365.176806816257	318.834459500499	641.341689225612	239.601226978985	377.442810157359	868.287307720588	407.069284350328	597.455137989551	799.852489442350	300.201397402919	656.908581683156	846.253042266829	207.775670724804	593.677207780670	716.176506796076	42.686599083491	559.444751674809	886.880288579446	97.895533406363	597.459524595532	798.856798145406	36.223911782343	635.250421786847	1006.658165060934	46.616867414866	625.542368503671	445.046422815799	182.397023818989	413.140824033679	503.374432134790	138.448921144970	332.502366711413	608.118884394536	143.109977593389	355.230122683712	683.726583673631	35.493561655320	325.745558101677	700.393278272161	1105.389706470730	214.244448829366	864.151584544551	899.915809990373	208.637636882144	753.821469884569	1074.915049150951	801.002557206500	915.158706692445	871.122099702275	794.867396165291	
40	46.467642857143	805.453109061367	959.619992672757	364.852719600417	589.389571245918	1000.633161550101	519.508588651184	766.555239806973	1440.983926599597	361.006388747462	866.172328713935	1361.973549626147	520.428357584160	777.058541691283	1426.379075412195	696.870409289739	766.373463273813	1493.111181455334	515.681580749051	816.941578568201	940.347294726351	638.588546788998	872.076381272689	745.546108980585	611.973869858689	797.745302556523	633.193195287808	666.937541098064	881.200023559519	586.868881489283	588.441945700456	888.549861525922	497.086812972905	593.708556728871	864.874788255726	752.283843321396	391.343727336441	797.039128522187	631.341062553456	318.907693408891	890.037583566980	554.674160943879	378.193416755655	888.385419670535	464.702805223985	373.331282671114	816.831979934827	404.899906764186	368.031222994251	673.337081739480	370.790403680366	320.341226611830	651.244700036195	245.097431857807	378.608835982749	862.360007449277	406.849698673843	599.563237705099	793.328230383789	300.028390526922	658.345333275096	839.667137060119	207.699327392218	594.852387080681	709.221080153568	42.733072365055	559.652812122795	880.122174084107	97.912475537514	598.022975046018	791.892807588421	36.168278833246	635.480782282045	999.733795071034	46.466254579194	625.750888653127	454.222994202243	191.056333347581	415.751790965904	511.161958683600	146.292715507100	334.351982990899	616.531774273258	148.505251511658	356.324785936604	689.636624079927	37.295033890998	325.399200298676	694.039649548332	1106.780670222023	218.036818327095	855.096616621530	899.187294709592	210.315440814117	760.924330954044	1075.843877278617	805.486561410511	925.447132639916	874.653632265539	798.687951691507	
41	46.481428571429	803.469586541914	960.434239606648	366.948046179954	588.387644336492	1001.634680419508	523.233363207853	764.139543504108	1441.937858073283	363.504301052198	865.604685433455	1362.711963294985	521.687563780614	778.663747075214	1427.079196952404	699.225769818355	765.954209984914	1493.941013506424	518.073052570304	816.627519168569	941.207808450688	640.670120801841	869.451619017439	745.003760508299	615.179573894685	793.413753147369	633.381884605079	669.403972320910	876.592208514919	586.305773822356	591.092300489750	882.703475445247	496.689320260060	596.062036619811	867.568975465145	756.898030741895	393.402890479375	803.466862974624	634.633738862704	319.957385400916	899.104844745183	560.303510463341	378.309907831260	899.658142904410	469.755813511640	373.066444878122	828.190240494876	408.913283859409	368.142399942204	684.051468459115	375.409451299316	321.560611192345	662.212337080897	249.438924523153	379.490897955732	856.310591288842	406.685483985128	601.505413300520	786.689790752239	299.919636394495	659.646656747085	833.021700440778	207.667876659830	595.942365441459	702.229862377592	42.782816618040	559.845891172472	873.337258621913	97.921723119331	598.524767018460	784.899882112280	36.124378742844	635.687624936120	992.781171325319	46.310320048887	625.935396823275	465.213336559375	196.276758076261	418.062838705792	521.250790943984	151.493631294529	335.929345190520	627.003478845473	152.675925003936	357.134297423440	699.007103586312	39.320698144179	324.801683086496	687.447539537103	1108.188224318159	221.729270288724	845.335611587341	898.207399790052	211.931747761793	768.093453967052	1076.897006658538	809.597064623787	935.626149393836	878.216036564469	802.156427070306	
42	46.495214285714	801.451265867676	961.336728599120	368.991959568181	587.362112522909	1002.671425230973	526.787027059574	761.746230160335	1442.862537107141	365.838949991276	864.968122012310	1363.467507879189	522.826884551560	780.122646857238	1427.856192349200	701.356856241498	765.516550616221	1494.785368492072	520.248928101153	816.242518241124	942.035859785448	642.670790488574	866.726475562183	744.561429230649	617.971997722987	789.042618661991	633.603449396864	671.616285930597	871.861829326066	585.768027893124	593.456454284644	876.721568307134	496.337027421247	598.155555530209	869.699020943812	761.502319700862	395.233148058044	808.913816589037	638.191247093601	320.849222203917	906.950558484159	566.100542913872	378.237072984950	909.757112523345	475.222700158312	372.650250717489	838.916728736003	413.129221440977	368.043139935985	694.605611206532	378.815492634090	322.461400223222	674.258011055529	252.401339515935	380.017707548833	850.168040397079	406.568014128095	603.234917843885	779.975173626082	299.872328790684	660.785350341222	826.334235201414	207.673900832664	596.916320685526	695.216166312960	42.827665577379	560.020196917261	866.525520587711	97.929524598846	598.954038270655	777.891071943753	36.093914241769	635.868351229511	985.808810976383	46.170843078347	626.098637675527	478.035764926513	197.792285866003	419.926061168541	533.679355999261	153.755703311283	337.103710969998	639.598797540842	155.340915872570	357.552375003086	711.928911128152	41.354263343228	323.886971053982	680.727181310198	1109.636264346083	225.326943294058	834.899899924441	896.961988883783	213.552609141155	775.250870743971	1078.059087083015	813.303571433932	945.744274910073	881.902528471839	805.191659827942	
